<svg xmlns="http://www.w3.org/2000/svg" width="519" height="519" viewBox="0 0 519 519" id="happy-emoji"><defs><radialGradient id="a" cx="50%" cy="18.4%" r="59.676%" fx="50%" fy="18.4%"><stop offset="0%" stop-color="#FDE990"></stop><stop offset="100%" stop-color="#FACE57"></stop></radialGradient><radialGradient id="b" cx="50%" cy="46.464%" r="56.12%" fx="50%" fy="46.464%" gradientTransform="matrix(0 -1 1.06522 0 .005 .965)"><stop offset="0%" stop-color="#D27C12" stop-opacity=".186"></stop><stop offset="82.343%" stop-color="#D27C12" stop-opacity="0"></stop><stop offset="100%" stop-color="#D27C12" stop-opacity=".176"></stop></radialGradient><radialGradient id="c" cx="50%" cy="50%" r="50%" fx="50%" fy="50%"><stop offset="0%" stop-color="#F6756A"></stop><stop offset="100%" stop-color="#F66F6A" stop-opacity="0"></stop></radialGradient></defs><g fill="none" fill-rule="evenodd"><circle cx="259.5" cy="259.5" r="259.5" fill="url(#a)"></circle><circle cx="259.5" cy="259.5" r="259.5" fill="url(#b)"></circle><path fill="#251C0C" fill-rule="nonzero" d="M128.558017 118C160.301557 118 187.44679 140.590087 193.755509 171.601536 195.070892 178.067492 190.947247 184.38614 184.54509 185.71463 178.206956 187.029836 172.011774 182.961127 170.61219 176.605711L170.571251 176.412425C166.513664 156.466752 149.014922 141.904412 128.558017 141.904412 104.868221 141.904412 85.6685446 161.276428 85.6685446 185.167163 85.6685446 189.844694 86.4003432 194.406725 87.8185242 198.740596L87.9626286 199.173218C90.0796046 205.418386 86.7829979 212.214346 80.5994515 214.352418 74.4159051 216.490491 67.6870022 213.161032 65.5700262 206.915864 63.2153135 199.969363 62 192.643684 62 185.167163 62 148.06914 91.8016339 118 128.558017 118zM318.558017 61C350.301557 61 377.44679 83.5900869 383.755509 114.601536 385.070892 121.067492 380.947247 127.38614 374.54509 128.71463 368.206956 130.029836 362.011774 125.961127 360.61219 119.605711L360.571251 119.412425C356.513664 99.4667517 339.014922 84.9044116 318.558017 84.9044116 294.868221 84.9044116 275.668545 104.276428 275.668545 128.167163 275.668545 132.844694 276.400343 137.406725 277.818524 141.740596L277.962629 142.173218C280.079605 148.418386 276.782998 155.214346 270.599452 157.352418 264.415905 159.490491 257.687002 156.161032 255.570026 149.915864 253.215314 142.969363 252 135.643684 252 128.167163 252 91.0691397 281.801634 61 318.558017 61zM334.707059 215.748316C338.092287 210.167275 345.449283 208.334626 351.13937 211.654978 356.829456 214.975331 358.697914 222.191336 355.312686 227.772376 330.222635 269.136973 292.767718 295.37636 247.254102 302.251223 216.537318 306.891015 184.203578 302.282834 150.4189 288.61017 144.298479 286.133235 141.384083 279.258785 143.909414 273.255657 146.434746 267.25253 153.443513 264.393986 159.563934 266.870921 189.476565 278.976567 217.43481 282.961156 243.604688 279.008177 281.796587 273.239264 313.164682 251.264056 334.707059 215.748316z"></path><circle cx="102" cy="263" r="89" fill="url(#c)" opacity=".711"></circle><circle cx="377" cy="178" r="89" fill="url(#c)" opacity=".711"></circle></g></svg>